inDegrees=no
num_controls=7
num_derivatives=13
num_iterations=71
num_multipliers=7
num_parameters=0
num_slacks=7
num_states=26
objective=0.470348
objective_accelerations=0.061218
objective_balance=0.001756
objective_effort=0.019507
objective_height=0.378323
objective_ligament=0.009545
solver_duration=938.548696
status=Solve_Succeeded
success=true
DataType=double
version=3
OpenSimVersion=4.5
endheader
time	/jointset/ground_pelvis/pelvis_tilt/value	/jointset/ground_pelvis/pelvis_tx/value	/jointset/ground_pelvis/pelvis_ty/value	/jointset/hip_l/hip_flexion_l/value	/jointset/hip_l/hip_adduction_l/value	/jointset/hip_l/hip_rotation_l/value	/jointset/back/lumbar_extension/value	/jointset/patellofemoral_l/patellar_flexion_l/value	/jointset/knee_l/knee_flexion_l/value	/jointset/knee_l/knee_adduction_l/value	/jointset/knee_l/knee_rotation_l/value	/jointset/ankle_l/ankle_angle_l/value	/jointset/subtalar_l/subtalar_angle_l/value	/jointset/ground_pelvis/pelvis_tilt/speed	/jointset/ground_pelvis/pelvis_tx/speed	/jointset/ground_pelvis/pelvis_ty/speed	/jointset/hip_l/hip_flexion_l/speed	/jointset/hip_l/hip_adduction_l/speed	/jointset/hip_l/hip_rotation_l/speed	/jointset/back/lumbar_extension/speed	/jointset/patellofemoral_l/patellar_flexion_l/speed	/jointset/knee_l/knee_flexion_l/speed	/jointset/knee_l/knee_adduction_l/speed	/jointset/knee_l/knee_rotation_l/speed	/jointset/ankle_l/ankle_angle_l/speed	/jointset/subtalar_l/subtalar_angle_l/speed	/forceset/tau_hip_flexion_l	/forceset/tau_hip_adduction_l	/forceset/tau_hip_rotation_l	/forceset/tau_knee_flexion_l	/forceset/tau_ankle_angle_l	/forceset/tau_subtalar_angle_l	/forceset/tau_lumbar_extension	lambda_cid13_p0	lambda_cid13_p1	lambda_cid13_p2	lambda_cid13_p3	lambda_cid13_p4	lambda_cid13_p5	lambda_cid14_p0	/jointset/ground_pelvis/pelvis_tilt/accel	/jointset/ground_pelvis/pelvis_tx/accel	/jointset/ground_pelvis/pelvis_ty/accel	/jointset/hip_l/hip_flexion_l/accel	/jointset/hip_l/hip_adduction_l/accel	/jointset/hip_l/hip_rotation_l/accel	/jointset/back/lumbar_extension/accel	/jointset/patellofemoral_l/patellar_flexion_l/accel	/jointset/knee_l/knee_flexion_l/accel	/jointset/knee_l/knee_adduction_l/accel	/jointset/knee_l/knee_rotation_l/accel	/jointset/ankle_l/ankle_angle_l/accel	/jointset/subtalar_l/subtalar_angle_l/accel	gamma_cid13_p0	gamma_cid13_p1	gamma_cid13_p2	gamma_cid13_p3	gamma_cid13_p4	gamma_cid13_p5	gamma_cid14_p0
0	0.05066314251708946	0.1065842299020833	0.9040402767339878	0.1266922784136757	-0.3601754444645732	-0.2390726771095465	-0.2144969558742783	0.2051545070141812	0.2051545070141877	-0.1536971113663927	-0.1689478765042882	0.09024313228550125	0.089904443754473	0	0	0	0	0	0	0	0	0	0	0	0	0	0.1285649572679151	-0.03944412419525646	-0.01001611947864226	-0.241715759288735	0.1466183664719013	-0.08677656663096595	-0.06204656930123061	14.62028639236432	35.29305004500117	-6.097177882502949	6.139246403979207	-450.7828692183609	-44.67076958562621	-26.39632464960734	-6.152198684965866	-2.21865250279289	-0.862239753390499	14.11162430179891	0.09770769482517422	2.472911385510915	-3.997437494988473	7.305997596134415	7.305997596134288	2.045945089472092	-0.3681555683422793	0.08312833955536023	0.1012433789528489	-3.632743556906324e-09	2.752341507128705e-07	-1.297480148615803e-07	5.279965828901252e-08	-5.328075468545527e-08	1.216228388527894e-07	5.360203232111756e-08
0.01	0.05036665164019759	0.1064731883099347	0.9039982793072597	0.1273808329017765	-0.3601713501099887	-0.2389460558728282	-0.2147012051488547	0.2055113269917615	0.2055113269917019	-0.1535989462345488	-0.1689608265615116	0.09024418004673369	0.08990764665006361	-0.05889928449060272	-0.02225412824537355	-0.008385934926865053	0.1371718536301264	0.0006753348759581541	0.02521895632587422	-0.04056196979117118	0.07116141125478979	0.07116141125479057	0.01928245890874709	-0.002686646485139128	4.697525721277612e-05	0.0004354935742586668	0.1202343525161669	-0.04687017912913746	-0.008122440923215749	-0.2278979703206685	0.1240110174662056	-0.07384010349380028	-0.05615613660002843	8.147307054008058	30.06655624650022	-4.416891779335879	10.58036802737163	-450.3603719283922	-54.12910372888012	-26.39591899681663	-5.698954496797976	-2.235653899681914	-0.8247484556203841	13.43911291824416	0.03088869918915126	2.530623631958913	-4.042393951956534	6.990814531405028	6.990814531405073	1.816846834237479	-0.2334436807575491	-0.05889839114893291	-0.01608803660709281	1.622750185169049e-09	3.291578882825714e-07	-7.129571266175531e-08	3.927889499386447e-08	-1.264088933020264e-07	9.030586876321124e-08	5.586018583270842e-08
0.02	0.04949313568524084	0.1061382332524762	0.9038728269126062	0.1294249353311232	-0.3601648139436272	-0.2385703978976971	-0.2153024375674927	0.2065736814100824	0.2065736814100896	-0.1533184664051413	-0.1690035479821208	0.09024082145854502	0.08990904640474312	-0.1154050156087988	-0.04478269306200204	-0.01669099358509275	0.2711095882452478	0.000488362360229443	0.04980734768507297	-0.07939662881328251	0.1411068881597181	0.1411068881597203	0.03646293952394085	-0.005954272656588145	-0.0008812698837297605	-0.0003606281822754913	0.1119037477649514	-0.05429623406300463	-0.006228762367170774	-0.2140801813523932	0.1014036684606123	-0.06090364035659468	-0.05026570389847097	1.707594750525696	24.84012857728217	-2.743346231610005	15.09005569055596	-449.2769573878165	-63.45404722289859	-26.39486954040039	-5.673488010484086	-2.27353981704454	-0.8460644996630098	13.46480049879822	-0.07475378351219981	2.346798392175808	-3.651975341176257	7.062810726162113	7.062810726162111	1.625549430761418	-0.4843515056043376	-0.1119157400765446	-0.1450796872059816	6.878243927244421e-09	3.830816258522724e-07	-1.284341046193034e-08	2.575813169871642e-08	-1.995370319185975e-07	5.898889867363305e-08	5.811833934429927e-08
0.03	0.04806387101802388	0.105578387931977	0.9036646050773505	0.1327917909000255	-0.3601630894618389	-0.2379521448748383	-0.2162823478068794	0.2083269727677295	0.2083269727678652	-0.1528747171001255	-0.1690802055150507	0.09022451892605374	0.08989819319539888	-0.1702546603483931	-0.06705327031655768	-0.02494381164124161	0.4015937263628552	-0.000143446020555095	0.07376570688758353	-0.1162573685616056	0.2090728907877124	0.2090728907877147	0.052137062310519	-0.00925687741012793	-0.002422318701632494	-0.001822385832372234	0.1090581152851751	-0.05048709019479723	-0.005914905291073982	-0.2127557967652336	0.1022366882056957	-0.0634718030441439	-0.0478620957769838	1.880555757496195	25.94557090515007	-2.942854839988215	14.28514218824996	-448.826971641369	-60.62848611605169	-26.39332378018861	-5.36171053122581	-2.183846476271219	-0.8134963877008217	12.74005105713007	-0.05745040073801536	2.408735938222429	-3.653915715742071	6.591709509372477	6.59170950937261	1.515930497732737	-0.2351726731923086	-0.1816463632139821	-0.1486388672590561	-5.036780906026426e-09	3.979000848615354e-07	2.823603287951323e-08	3.738475477530439e-08	-3.446078384814522e-07	1.801561118165493e-08	5.989920468057002e-08
0.04	0.04609190833829549	0.104799830879609	0.9033741338757121	0.1374434539678562	-0.3601676942709173	-0.2370966320091123	-0.2176210239285568	0.2107455670474161	0.2107455670474249	-0.1522787092079394	-0.1691862806379718	0.09019151652329606	0.08987233939688413	-0.2239446181090472	-0.0885250394357688	-0.03314086686163294	0.5280710880360542	-0.0007774958163346295	0.09725931624744336	-0.1511498052731374	0.274167472545865	0.2741674725458697	0.06691465690212199	-0.0118377906822129	-0.004221243942239552	-0.003360746016395077	0.106212482804984	-0.04667794632691092	-0.005601048215700908	-0.2114314121784429	0.1030697079505059	-0.06603996573211331	-0.04545848765550637	2.083257038516601	27.05046600729013	-3.147600265338817	13.5424468931332	-447.7903062986	-57.68497244548372	-26.39081353578117	-5.441550614695624	-2.113778189976275	-0.8349119325114869	12.66344520991686	-0.07520206651123117	2.25384842364566	-3.258314733817773	6.488526552193792	6.488526552194207	1.446243791766355	-0.3400132093134561	-0.1634910246182304	-0.1604001939914733	-1.730583705012916e-08	4.119122494674903e-07	6.895727294552628e-08	4.952988066368075e-08	-4.911619990225808e-07	-2.315677563820775e-08	6.167022902353521e-08
0.05	0.04358892210732586	0.1038100548539838	0.9030016509963059	0.1433424251994537	-0.3601782108833076	-0.2360100530561335	-0.2192990141504951	0.2138042526305922	0.2138042526305998	-0.1515376004618859	-0.1693169982219978	0.09014029452038895	0.08983154446273539	-0.2763820246161643	-0.1093425963529472	-0.04136898316582428	0.6511891440620835	-0.001284368510107036	0.1199336033452619	-0.184212469409917	0.3373568977299202	0.3373568977299189	0.08130582079060311	-0.01429597676209955	-0.005982910482565408	-0.004739200821592955	0.101688554947321	-0.04555850741156175	-0.004852622499849683	-0.2075214665796644	0.09930443971938464	-0.06484857316819098	-0.04211780766894678	1.058930124532921	26.58689509258815	-2.930341305259109	13.65930358102909	-446.2740722280386	-57.67419424047405	-26.38683621807022	-5.104236549880297	-2.052599039732038	-0.818852017943112	12.05588481169419	-0.03228259315823109	2.255790033526124	-3.294876797267548	6.202226199627752	6.202226199626557	1.435440834641789	-0.1972568899526669	-0.1764510298676796	-0.1177851734535594	-1.613563633758161e-08	4.089684746697085e-07	4.158920141741055e-08	5.042908027707362e-08	-5.285490342511951e-07	-2.120372423169562e-08	6.768534407825128e-08
